Coordinates
version=1
nRows=12
nColumns=34
inDegrees=yes

Units are S.I. units (second, meters, Newtons, ...)
If the header above contains a line with 'inDegrees', this indicates whether rotational values are in degrees (yes) or radians (no).

endheader
time	pelvis_tilt	pelvis_list	pelvis_rotation	pelvis_tx	pelvis_ty	pelvis_tz	hip_flexion_r	hip_adduction_r	hip_rotation_r	knee_angle_r	ankle_angle_r	subtalar_angle_r	mtp_angle_r	hip_flexion_l	hip_adduction_l	hip_rotation_l	knee_angle_l	ankle_angle_l	subtalar_angle_l	mtp_angle_l	lumbar_extension	lumbar_bending	lumbar_rotation	arm_flex_r	arm_add_r	arm_rot_r	elbow_flex_r	pro_sup_r	arm_flex_l	arm_add_l	arm_rot_l	elbow_flex_l	pro_sup_l
      0.00000000	      1.39000983	     -2.69730065	     -1.25525231	     -0.52517355	      0.94715271	     -0.16783221	     -1.70114929	      1.95815393	     -3.64631648	      5.78212647	      0.99418319	    -10.91903554	      0.00000000	     -3.85174446	     -4.73703026	     -5.05505131	      3.15574242	     12.43960595	      0.24460090	      0.00000000	     -2.91162848	      3.46345033	     -5.56252786	      3.06883218	     -5.70965427	     10.13516183	     22.34768271	     84.46434779	     -5.86093980	     -4.53062378	      0.74416656	     27.78867606	     78.20817570
      0.01666670	     -1.07830586	     -1.21991213	     -1.64933206	     -0.52214156	      0.94173774	     -0.16719488	      0.91517091	      0.79691697	     -2.92752800	      5.41657337	      4.64448166	     -7.55626054	      0.00000000	     -0.44106634	     -2.84511812	     -5.82920141	      4.06193270	     12.44818721	      1.37978361	      0.00000000	      1.30973668	      2.16697190	     -4.96167412	      1.51658963	     -5.49026322	      8.63327825	     22.42056909	     84.30016182	     -6.11231991	     -4.69844223	     -0.20880411	     26.61534257	     78.14366683
      0.03333330	     -1.45456365	     -0.27294736	     -2.02510292	     -0.52135404	      0.94057270	     -0.16626382	      1.13971233	     -0.29283931	     -3.91500193	      4.75487871	      5.85141840	     -5.55513335	      0.00000000	     -0.12489645	     -1.84397416	     -7.04162965	      4.13580950	     12.24696185	      2.29115602	      0.00000000	      2.17449973	      1.11407630	     -4.15473418	      0.40882031	     -5.34283042	      6.89354914	     23.51945712	     84.30437832	     -5.69124107	     -5.43776709	      2.48636761	     25.49531314	     78.78624080
      0.05000000	     -1.03990724	      0.19710195	     -2.23334747	     -0.52260519	      0.94226246	     -0.16558847	      0.61053120	     -0.82098296	     -3.65988656	      4.34863027	      6.53451427	     -5.12509244	      0.00000000	     -0.99465779	     -1.21618301	     -6.90487624	      3.44129713	     11.42737001	      1.54301245	      0.00000000	      1.86560088	      0.56121142	     -3.42448672	      0.00311954	     -5.37688350	      7.07152295	     23.93827374	     84.77747336	     -5.28484723	     -6.33212863	      6.81673606	     25.16349977	     79.31143732
      0.06666670	     -0.97312791	      0.39927507	     -2.40480677	     -0.52235001	      0.94289544	     -0.16499979	      0.46766614	     -0.95080657	     -3.19864661	      3.98501626	      6.91773178	     -4.99565561	      0.00000000	     -1.26084847	     -0.97023909	     -6.87696066	      3.06923651	     11.24877616	      1.56236595	      0.00000000	      1.91296012	      0.35950466	     -3.28119391	     -0.00248686	     -5.32051833	      7.12322852	     23.97080202	     84.80682413	     -5.25594377	     -6.33486157	      6.99307395	     25.09136629	     79.29161645
      0.08333330	     -0.93885535	      0.41064235	     -2.39335858	     -0.52279092	      0.94481965	     -0.16511424	      0.53455016	     -0.92271067	     -3.19311358	      3.95485247	      6.91843439	     -4.99300668	      0.00000000	     -1.29953911	     -0.94491748	     -6.86761544	      3.08336772	     11.24655283	      1.56640858	      0.00000000	      1.90971113	      0.36620357	     -3.27933124	     -0.00314169	     -5.31767425	      7.12495503	     23.97048434	     84.80738546	     -5.24912896	     -6.33496126	      6.99566532	     25.09130402	     79.29122145
      0.10000000	      0.11120843	      0.34673562	     -2.51878899	     -0.52448366	      0.94662825	     -0.16492917	     -0.60748677	     -0.86704616	     -2.71463087	      3.66168046	      6.61011548	     -5.00405765	      0.00000000	     -2.61856954	     -0.91842606	     -6.24063938	      2.69681243	     10.80400450	      1.19272702	      0.00000000	      0.29333945	      0.43472912	     -2.62966013	      0.23397695	     -5.44799394	      7.51960619	     24.03610921	     84.96747317	     -3.84803710	     -6.34971126	      8.30014521	     24.14161100	     79.03629300
      0.11666670	      0.12711617	      0.34746299	     -2.60470450	     -0.52371064	      0.94735945	     -0.16469843	     -0.58045012	     -0.84864652	     -2.69643696	      3.66274334	      6.58326698	     -4.99353385	      0.00000000	     -2.62851846	     -0.91783016	     -6.14716211	      2.73802087	     10.80145513	      1.22744645	      0.00000000	      0.26283203	      0.42631801	     -2.64968835	      0.23397667	     -5.43160403	      7.52574890	     24.03396434	     84.96920519	     -3.76590705	     -6.34619702	      8.31634648	     24.15265450	     79.02868896
      0.13333330	      0.22540583	      0.33925048	     -2.53070980	     -0.52379345	      0.94719381	     -0.16467661	     -0.63880429	     -0.82280326	     -2.51975899	      3.70256244	      6.35749410	     -4.91856777	      0.00000000	     -2.65611903	     -0.94320551	     -5.76533713	      2.87375601	     10.79943417	      1.30101453	      0.00000000	     -0.02750876	      0.40317293	     -2.57394711	      0.32810676	     -5.36280803	      7.55821244	     24.03319887	     84.97925659	     -3.46344289	     -6.39145895	      8.38225678	     24.12164848	     78.97957745
      0.15000000	      0.89449351	      0.30830074	     -2.52432474	     -0.52411115	      0.94916917	     -0.16479239	     -1.58114368	     -0.80084771	     -2.52874707	      3.25632675	      5.78120044	     -5.24950370	      0.00000000	     -3.44867860	     -0.93494919	     -5.32311672	      2.64934788	     10.50765537	      0.75951654	      0.00000000	     -0.99751175	      0.37610809	     -2.33490760	      0.40607434	     -5.40977361	      7.65241449	     23.98982471	     85.02000060	     -2.81408076	     -6.38184300	      8.85563937	     23.55184862	     78.67822479
      0.16666670	      0.88823120	      0.32215079	     -2.54463130	     -0.52299050	      0.94955412	     -0.16454578	     -1.60326488	     -0.80064998	     -2.52364696	      3.25835671	      5.78028255	     -5.24760521	      0.00000000	     -3.43717185	     -0.93746243	     -5.31580932	      2.65334914	     10.49941279	      0.76213937	      0.00000000	     -0.99913379	      0.37210696	     -2.33951239	      0.40470974	     -5.40971568	      7.65263759	     23.99003706	     85.02013251	     -2.80594893	     -6.38309978	      8.85770368	     23.55147910	     78.67662093
      0.18333330	      0.98609796	      0.50339571	     -2.54135493	     -0.52420654	      0.94887158	     -0.16467132	     -1.83458802	     -0.99127361	     -2.30656885	      2.89810781	      5.74233374	     -5.16903082	      0.00000000	     -3.43265556	     -0.73189943	     -5.21440252	      2.73288601	     10.17558172	      0.77240181	      0.00000000	     -1.06347616	      0.13318679	     -2.32854991	      0.40390615	     -5.34480228	      7.67336783	     24.02188549	     85.02763235	     -2.66118273	     -6.49260682	      8.90988549	     23.48676895	     78.62576672
